<?xml version="1.0" encoding="UTF-8" standalone="no"?>
<!DOCTYPE svg PUBLIC "-//W3C//DTD SVG 1.1//EN"
 "http://www.w3.org/Graphics/SVG/1.1/DTD/svg11.dtd">
<!-- Generated by graphviz version 2.43.0 (0)
 -->
<!-- Title: %3 Pages: 1 -->
<svg width="150pt" height="404pt"
 viewBox="0.00 0.00 150.23 404.00" xmlns="http://www.w3.org/2000/svg" xmlns:xlink="http://www.w3.org/1999/xlink">
<g id="graph0" class="graph" transform="scale(1 1) rotate(0) translate(4 400)">
<title>%3</title>
<polygon fill="white" stroke="transparent" points="-4,4 -4,-400 146.23,-400 146.23,4 -4,4"/>
<!-- 0 -->
<g id="node1" class="node">
<title>0</title>
<ellipse fill="none" stroke="black" cx="112.23" cy="-378" rx="27" ry="18"/>
<text text-anchor="middle" x="112.23" y="-374.3" font-family="Times,serif" font-size="14.00">&quot;0&quot;</text>
</g>
<!-- 1 -->
<g id="node2" class="node">
<title>1</title>
<ellipse fill="none" stroke="black" cx="63.23" cy="-306" rx="31.7" ry="18"/>
<text text-anchor="middle" x="63.23" y="-302.3" font-family="Times,serif" font-size="14.00">&quot;P1&quot;</text>
</g>
<!-- 0&#45;&gt;1 -->
<g id="edge1" class="edge">
<title>0&#45;&gt;1</title>
<path fill="none" stroke="black" d="M101.35,-361.46C95.16,-352.62 87.26,-341.34 80.26,-331.34"/>
<polygon fill="black" stroke="black" points="83.01,-329.16 74.41,-322.98 77.28,-333.18 83.01,-329.16"/>
</g>
<!-- 2 -->
<g id="node3" class="node">
<title>2</title>
<ellipse fill="none" stroke="black" cx="63.23" cy="-234" rx="27" ry="18"/>
<text text-anchor="middle" x="63.23" y="-230.3" font-family="Times,serif" font-size="14.00">&quot;2&quot;</text>
</g>
<!-- 1&#45;&gt;2 -->
<g id="edge2" class="edge">
<title>1&#45;&gt;2</title>
<path fill="none" stroke="black" d="M63.23,-287.7C63.23,-279.98 63.23,-270.71 63.23,-262.11"/>
<polygon fill="black" stroke="black" points="66.73,-262.1 63.23,-252.1 59.73,-262.1 66.73,-262.1"/>
</g>
<!-- 4 -->
<g id="node5" class="node">
<title>4</title>
<ellipse fill="none" stroke="black" cx="44.23" cy="-90" rx="27" ry="18"/>
<text text-anchor="middle" x="44.23" y="-86.3" font-family="Times,serif" font-size="14.00">&quot;4&quot;</text>
</g>
<!-- 1&#45;&gt;4 -->
<g id="edge7" class="edge">
<title>1&#45;&gt;4</title>
<path fill="none" stroke="black" d="M50.65,-289.01C43.1,-278.84 33.74,-265.16 27.23,-252 12.28,-221.76 8.63,-213.3 3.23,-180 0.66,-164.21 -1.95,-159.14 3.23,-144 7.14,-132.54 14.66,-121.63 22.19,-112.73"/>
<polygon fill="black" stroke="black" points="24.92,-114.92 29.02,-105.15 19.72,-110.24 24.92,-114.92"/>
</g>
<!-- 3 -->
<g id="node4" class="node">
<title>3</title>
<ellipse fill="none" stroke="black" cx="44.23" cy="-162" rx="31.7" ry="18"/>
<text text-anchor="middle" x="44.23" y="-158.3" font-family="Times,serif" font-size="14.00">&quot;P3&quot;</text>
</g>
<!-- 2&#45;&gt;3 -->
<g id="edge3" class="edge">
<title>2&#45;&gt;3</title>
<path fill="none" stroke="black" d="M58.63,-216.05C56.51,-208.26 53.95,-198.82 51.58,-190.08"/>
<polygon fill="black" stroke="black" points="54.91,-189.01 48.92,-180.28 48.16,-190.84 54.91,-189.01"/>
</g>
<!-- 5 -->
<g id="node6" class="node">
<title>5</title>
<ellipse fill="none" stroke="black" cx="104.23" cy="-18" rx="31.7" ry="18"/>
<text text-anchor="middle" x="104.23" y="-14.3" font-family="Times,serif" font-size="14.00">&quot;P5&quot;</text>
</g>
<!-- 2&#45;&gt;5 -->
<g id="edge8" class="edge">
<title>2&#45;&gt;5</title>
<path fill="none" stroke="black" d="M71.37,-216.7C76.16,-206.42 81.9,-192.72 85.23,-180 97.24,-134 101.67,-78.62 103.3,-46.25"/>
<polygon fill="black" stroke="black" points="106.8,-46.35 103.75,-36.21 99.8,-46.04 106.8,-46.35"/>
</g>
<!-- 3&#45;&gt;4 -->
<g id="edge4" class="edge">
<title>3&#45;&gt;4</title>
<path fill="none" stroke="black" d="M44.23,-143.7C44.23,-135.98 44.23,-126.71 44.23,-118.11"/>
<polygon fill="black" stroke="black" points="47.73,-118.1 44.23,-108.1 40.73,-118.1 47.73,-118.1"/>
</g>
<!-- 4&#45;&gt;5 -->
<g id="edge5" class="edge">
<title>4&#45;&gt;5</title>
<path fill="none" stroke="black" d="M57.25,-73.81C65.08,-64.67 75.21,-52.85 84.06,-42.52"/>
<polygon fill="black" stroke="black" points="86.97,-44.51 90.82,-34.64 81.65,-39.96 86.97,-44.51"/>
</g>
<!-- 5&#45;&gt;0 -->
<g id="edge6" class="edge">
<title>5&#45;&gt;0</title>
<path fill="none" stroke="black" d="M111.73,-35.66C122.81,-61.8 142.23,-114.3 142.23,-161 142.23,-235 142.23,-235 142.23,-235 142.23,-276.07 130.07,-322.4 121.23,-350.65"/>
<polygon fill="black" stroke="black" points="117.89,-349.6 118.15,-360.19 124.55,-351.75 117.89,-349.6"/>
</g>
</g>
</svg>
